<svg width="64" height="62" viewBox="0 0 64 62" xmlns="http://www.w3.org/2000/svg">
  <title>Ali aas</title>
  <path d="M12.72 15.32h-7.4l-1.96 6.2-2.64-.96L7.28.16h3.44l6.56 20.4-2.64.96-1.92-6.2zm-.76-2.4L9 3.28l-2.96 9.64h5.92zM27.8 21h13.6v-2.4H30.48V.16H27.8V21zm24.92 0h8.56v-2.4h-2.96V2.56h2.96V.16h-8.56v2.4h2.92V18.6h-2.92V21zm-40 34.32h-7.4l-1.96 6.2-2.64-.96 6.56-20.4h3.44l6.56 20.4-2.64.96-1.92-6.2zm-.76-2.4L9 43.28l-2.96 9.64h5.92zm24.76 2.4h-7.4l-1.96 6.2-2.64-.96 6.56-20.4h3.44l6.56 20.4-2.64.96-1.92-6.2zm-.76-2.4L33 43.28l-2.96 9.64h5.92zm14.28 2.24c.64 3.72 3.08 6.2 6.96 6.2 3.84 0 6.6-2.24 6.6-6.2 0-2.16-1-3.84-2.88-4.88l-4.44-1.96c-1.6-.72-2.8-1.28-2.8-3.24 0-1.88 1.68-2.76 3.4-2.76 2.28 0 3.36 1.44 3.84 3.48l2.56-.76c-.84-3.24-2.88-5.24-6.36-5.24-3.28 0-6.12 1.96-6.12 5.48 0 3.92 2.88 4.72 5.92 6 2.04.84 4.2 1.48 4.2 4.04 0 2.32-1.72 3.52-3.92 3.52-2.8 0-4.04-1.88-4.56-4.44l-2.4.76z" />
</svg>
